<?xml version="1.0" encoding="iso-8859-1"?>
<!-- Generator: Adobe Illustrator 18.0.0, SVG Export Plug-In . SVG Version: 6.00 Build 0)  -->
<!DOCTYPE svg PUBLIC "-//W3C//DTD SVG 1.1//EN" "http://www.w3.org/Graphics/SVG/1.1/DTD/svg11.dtd">
<svg xmlns="http://www.w3.org/2000/svg" xmlns:xlink="http://www.w3.org/1999/xlink" version="1.1" id="Capa_1" x="0px" y="0px" viewBox="0 0 330 330" style="enable-background:new 0 0 330 330;" xml:space="preserve" width="512px" height="512px">
<g>
	<g>
		<g>
			<g>
				<g>
					<path d="M79.947,122.693c-1.97,0-3.9-0.8-5.3-2.189c-1.4-1.4-2.2-3.33-2.2-5.311c0-1.97,0.8-3.899,2.2-5.3       c1.4-1.4,3.33-2.2,5.3-2.2c1.97,0,3.91,0.8,5.3,2.2c1.4,1.4,2.2,3.33,2.2,5.3c0,1.98-0.8,3.91-2.2,5.311       C83.857,121.893,81.917,122.693,79.947,122.693z" fill="#FFFFFF"/>
				</g>
				<g>
					<path d="M164.997,122.693c-1.969,0-3.899-0.8-5.299-2.189c-1.4-1.4-2.2-3.33-2.2-5.311c0-1.97,0.8-3.899,2.2-5.3       c1.4-1.4,3.33-2.2,5.299-2.2c1.971,0,3.91,0.8,5.311,2.2c1.391,1.4,2.189,3.33,2.189,5.3c0,1.98-0.799,3.91-2.189,5.311       C168.907,121.893,166.967,122.693,164.997,122.693z" fill="#FFFFFF"/>
				</g>
				<g>
					<path d="M250.047,122.693c-1.971,0-3.9-0.8-5.301-2.189c-1.399-1.4-2.199-3.33-2.199-5.311c0-1.97,0.8-3.899,2.199-5.3       c1.4-1.4,3.33-2.2,5.301-2.2c1.98,0,3.91,0.8,5.3,2.2c1.399,1.4,2.2,3.33,2.2,5.3c0,1.98-0.801,3.91-2.2,5.311       C253.958,121.893,252.028,122.693,250.047,122.693z" fill="#FFFFFF"/>
				</g>
			</g>
			<g>
				<g>
					<path d="M124.697,84.893c-1.97,0-3.9-0.8-5.3-2.191c-1.4-1.399-2.2-3.329-2.2-5.309c0-1.97,0.8-3.91,2.2-5.3       c1.39-1.4,3.33-2.2,5.3-2.2c1.98,0,3.91,0.8,5.3,2.2c1.4,1.39,2.2,3.33,2.2,5.3c0,1.98-0.8,3.91-2.2,5.309       C128.607,84.093,126.677,84.893,124.697,84.893z" fill="#FFFFFF"/>
				</g>
				<g>
					<path d="M205.297,84.893c-1.971,0-3.9-0.8-5.301-2.191c-1.399-1.399-2.199-3.329-2.199-5.309c0-1.97,0.8-3.91,2.199-5.3       c1.4-1.4,3.33-2.2,5.301-2.2c1.98,0,3.91,0.8,5.3,2.2c1.399,1.39,2.2,3.33,2.2,5.3c0,1.98-0.801,3.91-2.2,5.309       C209.208,84.093,207.278,84.893,205.297,84.893z" fill="#FFFFFF"/>
				</g>
			</g>
		</g>
		<path d="M311.706,243.548c2.74-4.399,4.334-9.58,4.334-15.133c0-9.884-5.02-18.617-12.641-23.788    c5.221-5.615,8.425-13.13,8.425-21.385c0-7.21-2.444-13.856-6.542-19.165C319.741,158.365,330,144.261,330,127.796    c0-27.98-17.677-53.995-49.772-73.253c-30.896-18.538-71.819-28.747-115.227-28.747c-43.41,0-84.333,10.209-115.229,28.747    C17.676,73.801,0,99.816,0,127.796c0,16.465,10.26,30.569,24.718,36.281c-4.098,5.309-6.542,11.955-6.542,19.165    c0,8.255,3.208,15.767,8.429,21.382c-7.624,5.171-12.645,13.905-12.645,23.791c0,5.553,1.594,10.734,4.335,15.133    C9.338,245.862,0,251.993,0,268.249c0,19.826,14.352,35.955,31.994,35.955h266.012c17.642,0,31.994-16.129,31.994-35.955    C330,251.992,320.663,245.862,311.706,243.548z M33.176,183.242c0-9.067,7.378-16.444,16.446-16.444h230.756    c9.067,0,16.445,7.377,16.445,16.444c0,1.711-0.265,3.361-0.751,4.913c-6.061-0.818-9.608-3.451-13.893-6.645    c-5.909-4.404-13.264-9.887-27.021-9.887c-13.757,0-21.11,5.481-27.02,9.887c-5.182,3.862-9.275,6.913-18.056,6.913    c-8.781,0-12.874-3.051-18.056-6.913c-5.91-4.405-13.264-9.887-27.021-9.887c-13.757,0-21.111,5.481-27.021,9.887    c-5.182,3.862-9.274,6.913-18.056,6.913c-8.783,0-12.876-3.051-18.059-6.913c-5.91-4.405-13.265-9.887-27.023-9.887    c-13.758,0-21.113,5.481-27.023,9.886c-4.285,3.194-7.834,5.828-13.898,6.645C33.44,186.604,33.176,184.953,33.176,183.242z     M282.528,199.531c-0.705,0.093-1.42,0.157-2.149,0.157h-52.907c3.844-1.85,6.898-4.113,9.633-6.151    c5.182-3.862,9.274-6.913,18.056-6.913c8.781,0,12.874,3.051,18.056,6.913C275.874,195.519,278.833,197.713,282.528,199.531z     M192.696,199.689h-55.378c3.844-1.85,6.898-4.113,9.633-6.151c5.182-3.862,9.274-6.913,18.056-6.913    c8.781,0,12.875,3.051,18.057,6.913C185.797,195.575,188.852,197.839,192.696,199.689z M102.541,199.689H49.623    c-0.733,0-1.45-0.064-2.157-0.158c3.7-1.818,6.664-4.011,9.324-5.993c5.183-3.862,9.276-6.913,18.059-6.913    s12.877,3.051,18.059,6.913C95.642,195.575,98.697,197.839,102.541,199.689z M42.689,214.689h244.622    c7.57,0,13.729,6.157,13.729,13.727c0,7.57-6.158,13.729-13.729,13.729H42.689c-7.57,0-13.729-6.158-13.729-13.729    C28.96,220.846,35.119,214.689,42.689,214.689z M15,127.796c0-22.504,15.09-43.951,42.489-60.391    c28.599-17.159,66.78-26.609,107.511-26.609c40.729,0,78.91,9.45,107.51,26.609c27.4,16.439,42.49,37.887,42.49,60.391    c0,13.234-10.767,24.002-24,24.002H39C25.766,151.798,15,141.031,15,127.796z M298.006,289.204H31.994    c-9.371,0-16.994-9.4-16.994-20.955c0-6.708,1.183-11.105,16.994-11.105h266.012c15.811,0,16.994,4.397,16.994,11.105    C315,279.804,307.376,289.204,298.006,289.204z" fill="#FFFFFF"/>
	</g>
</g>
<g>
</g>
<g>
</g>
<g>
</g>
<g>
</g>
<g>
</g>
<g>
</g>
<g>
</g>
<g>
</g>
<g>
</g>
<g>
</g>
<g>
</g>
<g>
</g>
<g>
</g>
<g>
</g>
<g>
</g>
</svg>
