<?xml version="1.0" encoding="iso-8859-1"?>
<!-- Generator: Adobe Illustrator 19.0.0, SVG Export Plug-In . SVG Version: 6.00 Build 0)  -->
<svg xmlns="http://www.w3.org/2000/svg" xmlns:xlink="http://www.w3.org/1999/xlink" version="1.1" id="Capa_1" x="0px" y="0px" viewBox="0 0 512.001 512.001" style="enable-background:new 0 0 512.001 512.001;" xml:space="preserve" width="512px" height="512px">
<g>
	<g>
		<path d="M422.537,185.861c20.684-22.175,36.647-46.34,45.355-68.867c11.243-29.086,9.406-53.134-5.172-67.713    c-14.578-14.579-38.627-16.417-67.712-5.172c-22.527,8.708-46.692,24.672-68.868,45.355L88.06,0L0.001,46.153l235.988,144.633    c-14.171,17.211-28.622,35.237-42.352,53c-7.58,9.807-14.622,19.122-21.141,27.953l-85.195-2.915L28.112,313l94.301,36.326    c-8.373,17.789-10.367,31.741-0.924,41.184c4.339,4.339,9.63,6.264,15.81,6.264c7.263,0,15.76-2.673,25.371-7.195L199,483.888    l44.177-59.189l-2.915-85.195c8.832-6.519,18.146-13.56,27.953-21.14c17.762-13.73,35.788-28.18,53-42.352l144.633,235.989    l46.154-88.06L422.537,185.861z M62.544,48.251l27.601-14.465l212.43,79.824c-12.886,14.028-29.114,32.517-46.589,53.198    L62.544,48.251z M137.719,322.115l-46.283-17.828l5.65-4.218l53.902,1.844C146.064,309.121,141.631,315.866,137.719,322.115z     M207.713,420.565l-17.828-46.283c6.25-3.912,12.995-8.345,20.202-13.271l1.844,53.902L207.713,420.565z M260.011,285.596    c-30.72,24.097-57.112,43.386-78.441,57.331c-13.896,9.085-23.651,14.572-30.382,17.887c3.315-6.733,8.802-16.487,17.886-30.382    c13.945-21.329,33.233-47.721,57.331-78.441c44.126-56.253,92.79-112.163,114.346-133.719    c20.792-20.792,44.628-37.322,65.396-45.349c8.888-3.435,17.045-5.181,23.413-5.181c5.098,0,9.052,1.118,11.316,3.384    c5.094,5.094,4.389,18.726-1.797,34.73c-8.028,20.768-24.557,44.604-45.349,65.396    C372.173,192.806,316.263,241.471,260.011,285.596z M463.748,449.456L345.192,256.015c20.682-17.476,39.169-33.703,53.198-46.589    l79.824,212.43L463.748,449.456z" fill="#FFFFFF"/>
	</g>
</g>
<g>
</g>
<g>
</g>
<g>
</g>
<g>
</g>
<g>
</g>
<g>
</g>
<g>
</g>
<g>
</g>
<g>
</g>
<g>
</g>
<g>
</g>
<g>
</g>
<g>
</g>
<g>
</g>
<g>
</g>
</svg>
