<?xml version="1.0" encoding="iso-8859-1"?>
<!-- Generator: Adobe Illustrator 19.0.0, SVG Export Plug-In . SVG Version: 6.00 Build 0)  -->
<svg xmlns="http://www.w3.org/2000/svg" xmlns:xlink="http://www.w3.org/1999/xlink" version="1.1" id="Layer_1" x="0px" y="0px" viewBox="0 0 496 496" style="enable-background:new 0 0 496 496;" xml:space="preserve" width="512px" height="512px">
<g>
	<g>
		<g>
			<path d="M320,40c-74.992,0-136,61.008-136,136s61.008,136,136,136s136-61.008,136-136S394.992,40,320,40z M320,296     c-66.168,0-120-53.832-120-120S253.824,56,320,56s120,53.832,120,120S386.168,296,320,296z" fill="#FFFFFF"/>
			
				<rect x="315.998" y="111.898" transform="matrix(-0.6459 -0.7634 0.7634 -0.6459 395.845 543.6352)" width="16" height="136.238" fill="#FFFFFF"/>
			<rect x="246.397" y="124.018" transform="matrix(0.7894 -0.6139 0.6139 0.7894 -19.5454 207.0645)" width="91.217" height="16" fill="#FFFFFF"/>
			<path d="M48,0H32v24H0v16h32v16H0v16h32v16H0v16h32v16H0v16h32v16H0v16h32v168h-8c-8.824,0-16,7.176-16,16v22.24     c-4.872,4.4-8,10.696-8,17.76v80c0,13.232,10.768,24,24,24h32c13.232,0,24-10.768,24-24v-80c0-7.064-3.128-13.36-8-17.76V352     c0-8.824-7.184-16-16-16h-8V168h32v-16H48v-16h32v-16H48v-16h32V88H48V72h32V56H48V40h32V24H48V0z M64,392v80     c0,4.416-3.584,8-8,8H24c-4.416,0-8-3.584-8-8v-80c0-4.416,3.584-8,8-8h32C60.416,384,64,387.584,64,392z M56,352v16H24v-16H56z" fill="#FFFFFF"/>
			<path d="M496,176C496,78.952,417.048,0,320,0c-95.488,0-173.4,76.448-175.88,171.352l-2.808-4.208     c-3.936-5.904-11.168-8.488-17.944-6.44c-6.8,2.056-11.368,8.208-11.368,15.312v106.208c-4.76,2.776-8,7.88-8,13.776v18.224     c-4.76,2.776-8,7.88-8,13.776v152c0,8.824,7.176,16,16,16h48c8.816,0,16-7.176,16-16V328c0-5.896-3.24-11-8-13.776V296     c0-5.896-3.24-11-8-13.776v-33.04c26.776,58.312,84.48,99.576,152,102.616V480H200v16h120h120v-16H328V351.8     C421.344,347.6,496,270.368,496,176z M128,176.016l16,24V280h-16V176.016z M120,296h32v16h-32V296z M160.016,480H112V328h48     L160.016,480z M320,336c-88.224,0-160-71.776-160-160S231.776,16,320,16s160,71.776,160,160S408.224,336,320,336z" fill="#FFFFFF"/>
		</g>
	</g>
</g>
<g>
</g>
<g>
</g>
<g>
</g>
<g>
</g>
<g>
</g>
<g>
</g>
<g>
</g>
<g>
</g>
<g>
</g>
<g>
</g>
<g>
</g>
<g>
</g>
<g>
</g>
<g>
</g>
<g>
</g>
</svg>
