<?xml version="1.0" encoding="iso-8859-1"?>
<!-- Generator: Adobe Illustrator 19.0.0, SVG Export Plug-In . SVG Version: 6.00 Build 0)  -->
<svg xmlns="http://www.w3.org/2000/svg" xmlns:xlink="http://www.w3.org/1999/xlink" version="1.1" id="Capa_1" x="0px" y="0px" viewBox="0 0 512 512" style="enable-background:new 0 0 512 512;" xml:space="preserve" width="512px" height="512px">
<g>
	<g>
		<path d="M498.184,195L512,90h-68.028l11.842-90H350.555l-11.842,90H216.972l11.842-90H123.555l-11.842,90H43.684L29.869,195    h68.028L81.844,317H13.816L0,422h68.029l-11.842,90h105.259l11.842-90h121.741l-11.842,90h105.259l11.842-90h68.028l13.816-105    h-68.028l16.053-122H498.184z M447.925,347l-5.921,45h-68.028l-11.842,90h-44.741l11.842-90H146.976l-11.842,90H90.393l11.842-90    H34.206l5.921-45h68.028l23.947-182H64.075l5.921-45h68.029l11.842-90h44.741l-11.842,90h182.259l11.842-90h44.741l-11.842,90    h68.028l-5.921,45h-68.028l-23.947,182H447.925z" fill="#424242"/>
	</g>
</g>
<g>
	<g>
		<path d="M176.844,165l-23.947,182h182.259l23.947-182H176.844z M308.844,317H187.103l16.053-122h121.741L308.844,317z" fill="#424242"/>
	</g>
</g>
<g>
</g>
<g>
</g>
<g>
</g>
<g>
</g>
<g>
</g>
<g>
</g>
<g>
</g>
<g>
</g>
<g>
</g>
<g>
</g>
<g>
</g>
<g>
</g>
<g>
</g>
<g>
</g>
<g>
</g>
</svg>
