<?xml version="1.0" encoding="iso-8859-1"?>
<!-- Generator: Adobe Illustrator 18.0.0, SVG Export Plug-In . SVG Version: 6.00 Build 0)  -->
<!DOCTYPE svg PUBLIC "-//W3C//DTD SVG 1.1//EN" "http://www.w3.org/Graphics/SVG/1.1/DTD/svg11.dtd">
<svg xmlns="http://www.w3.org/2000/svg" xmlns:xlink="http://www.w3.org/1999/xlink" version="1.1" id="Capa_1" x="0px" y="0px" viewBox="0 0 59.191 59.191" style="enable-background:new 0 0 59.191 59.191;" xml:space="preserve" width="512px" height="512px">
<g>
	<path d="M47.739,18.011c-4.306-3.388-10.405-2.45-15.237-1.254c-0.777,0.193-1.574,0.286-2.373,0.321   c-0.127-0.638-0.285-1.278-0.478-1.913l3.734-0.556c4.783-0.712,8.476-4.405,9.188-9.188l0.551-3.701   c0.048-0.129,0.066-0.263,0.059-0.399L43.379,0l-5.421,0.807c-4.783,0.713-8.476,4.405-9.188,9.188l-0.325,2.183   c-1.108-2.127-2.702-3.988-4.901-5.161c-0.489-0.261-1.093-0.075-1.354,0.412c-0.26,0.488-0.075,1.093,0.412,1.353   c3.053,1.628,4.737,4.921,5.473,8.231c-0.467-0.059-0.93-0.141-1.387-0.255c-4.832-1.196-10.933-2.135-15.237,1.254   c-3.856,3.035-5.708,9.042-5.66,18.364c0.035,6.887,4.001,14.832,9.645,19.321c3.727,2.965,7.735,4.076,11.584,3.207   c1.686-0.38,3.464-0.38,5.149,0c0.852,0.192,1.71,0.287,2.571,0.287c3.036,0,6.109-1.184,9.013-3.494   c5.644-4.49,9.609-12.435,9.645-19.321C53.447,27.053,51.595,21.046,47.739,18.011z M33.09,12.63l-0.877,0.131l8.511-8.511   l-0.131,0.877C40.013,9.033,36.997,12.049,33.09,12.63z M38.253,2.786l1.301-0.194l-8.999,8.999l0.194-1.302   C31.33,6.383,34.346,3.368,38.253,2.786z M42.509,54.132c-2.256,1.796-5.802,3.746-9.899,2.82c-0.986-0.222-2-0.333-3.015-0.333   c-1.014,0-2.028,0.111-3.014,0.333c-4.089,0.924-7.643-1.024-9.899-2.82c-5.119-4.073-8.858-11.544-8.89-17.767   c-0.045-8.665,1.557-14.154,4.896-16.782c2.828-2.225,7-2.497,13.521-0.884c0.724,0.179,1.463,0.278,2.206,0.34   c0.057,0.512,0.095,1.017,0.111,1.507c0.017,0.541,0.461,0.968,0.998,0.968c0.011,0,0.021,0,0.032,0   c0.553-0.018,0.985-0.479,0.968-1.031c-0.015-0.463-0.051-0.94-0.1-1.422c0.861-0.05,1.719-0.154,2.558-0.361   c6.521-1.612,10.692-1.34,13.521,0.884c3.34,2.628,4.941,8.118,4.896,16.783C51.368,42.587,47.628,50.059,42.509,54.132z" fill="#424242"/>
	<path d="M19.791,20.188c-4.963,0-9,4.486-9,10c0,0.552,0.447,1,1,1s1-0.448,1-1c0-4.411,3.141-8,7-8c0.553,0,1-0.448,1-1   S20.344,20.188,19.791,20.188z" fill="#424242"/>
	<path d="M32.47,20.481c-0.812,0.812-1.89,1.259-3.035,1.259s-2.225-0.447-3.036-1.259c-0.391-0.391-1.023-0.391-1.414,0   s-0.391,1.024,0,1.414c1.189,1.189,2.771,1.845,4.45,1.845s3.26-0.655,4.449-1.845c0.391-0.391,0.391-1.024,0-1.414   C33.493,20.09,32.861,20.09,32.47,20.481z" fill="#424242"/>
</g>
<g>
</g>
<g>
</g>
<g>
</g>
<g>
</g>
<g>
</g>
<g>
</g>
<g>
</g>
<g>
</g>
<g>
</g>
<g>
</g>
<g>
</g>
<g>
</g>
<g>
</g>
<g>
</g>
<g>
</g>
</svg>
