<?xml version="1.0" encoding="utf-8"?>
<!DOCTYPE svg PUBLIC "-//W3C//DTD SVG 1.1//EN" "http://www.w3.org/Graphics/SVG/1.1/DTD/svg11.dtd">
<svg xmlns="http://www.w3.org/2000/svg" xmlns:xlink="http://www.w3.org/1999/xlink" width="512px" version="1.1" height="512px" viewBox="0 0 64 64" enable-background="new 0 0 64 64">
  <g>
    <g fill="#1D1D1B">
      <path d="m63.719,21.27c-0.389-6.56-6.076-11.978-12.68-12.075l-8.896-.132c-5.573-0.08-14.687-0.087-20.258-0.002l-9.081,.136c-6.613,0.097-12.253,5.525-12.574,12.1l-.026,.53c-0.272,5.59-0.272,14.682 0,20.27l.026,.54c0.32,6.567 5.957,12.015 12.565,12.145l9.101,.173c2.775,0.053 6.429,0.08 10.086,0.08 3.691,0 7.387-0.027 10.188-0.08l8.879-.173c6.598-0.126 12.281-5.563 12.67-12.118l.032-.551c0.332-5.596 0.332-14.703 0-20.301l-.032-.542zm-4,20.608l-.032,.549c-0.264,4.432-4.255,8.25-8.716,8.334l-8.879,.174c-5.531,0.105-14.582,0.107-20.117,0l-9.101-.174c-4.526-0.088-8.39-3.819-8.608-8.318l-.026-.54c-0.268-5.48-0.268-14.4 0-19.882l.025-.53c0.219-4.496 4.077-8.209 8.601-8.275l9.081-.135c2.734-0.041 6.33-0.062 9.936-0.062 3.694,0 7.397,0.022 10.201,0.063l8.895,.131c4.534,0.066 8.439,3.787 8.708,8.293l.032,.542c0.324,5.467 0.324,14.363 7.10543e-15,19.83z" fill="#424242"/>
      <path d="m42.731,29.592l-15.983-8.386c-0.627-0.329-1.38-0.308-1.985,0.058s-0.977,1.017-0.977,1.722v16.77c0,0.705 0.371,1.357 0.977,1.723 0.32,0.191 0.682,0.288 1.044,0.288 0.322,0 0.646-0.077 0.941-0.231l15.983-8.386c0.663-0.347 1.078-1.032 1.078-1.778s-0.414-1.433-1.078-1.78zm-14.905,6.833v-10.11l9.633,5.055-9.633,5.055z" fill="#424242"/>
    </g>
  </g>
</svg>
